<?xml version="1.0" encoding="UTF-8"?>
<!DOCTYPE svg PUBLIC "-//W3C//DTD SVG 1.1//EN" "http://www.w3.org/Graphics/SVG/1.1/DTD/svg11.dtd">
<svg xmlns="http://www.w3.org/2000/svg" version="1.1" width="1024px" height="1024px" style="shape-rendering:geometricPrecision; text-rendering:geometricPrecision; image-rendering:optimizeQuality; fill-rule:evenodd; clip-rule:evenodd" xmlns:xlink="http://www.w3.org/1999/xlink">
<g><path style="opacity:1" fill="#fefefe" d="M -0.5,-0.5 C 340.833,-0.5 682.167,-0.5 1023.5,-0.5C 1023.5,340.833 1023.5,682.167 1023.5,1023.5C 682.167,1023.5 340.833,1023.5 -0.5,1023.5C -0.5,682.167 -0.5,340.833 -0.5,-0.5 Z"/></g>
<g><path style="opacity:1" fill="#0e0e0e" d="M 522.5,267.5 C 521.078,267.709 519.745,268.209 518.5,269C 521.146,269.497 523.813,269.664 526.5,269.5C 604.387,273.855 667.22,306.522 715,367.5C 719.732,374.573 724.065,381.906 728,389.5C 728.554,392.557 727.387,394.724 724.5,396C 582.5,396.667 440.5,396.667 298.5,396C 295.651,393.441 294.817,390.274 296,386.5C 323.416,340.093 362.249,306.926 412.5,287C 432.436,279.08 453.103,273.913 474.5,271.5C 479.414,271.638 484.081,270.972 488.5,269.5C 490.5,269.5 492.5,269.5 494.5,269.5C 496.857,269.663 499.19,269.497 501.5,269C 500.956,268.283 500.289,267.783 499.5,267.5C 491.845,264.677 486.679,259.344 484,251.5C 478.975,229.534 487.475,216.534 509.5,212.5C 530.653,214.146 540.487,225.48 539,246.5C 537.038,256.294 531.538,263.294 522.5,267.5 Z"/></g>
<g><path style="opacity:1" fill="#818181" d="M 499.5,267.5 C 500.289,267.783 500.956,268.283 501.5,269C 499.19,269.497 496.857,269.663 494.5,269.5C 496.167,268.833 497.833,268.167 499.5,267.5 Z"/></g>
<g><path style="opacity:1" fill="#797979" d="M 522.5,267.5 C 523.833,268.167 525.167,268.833 526.5,269.5C 523.813,269.664 521.146,269.497 518.5,269C 519.745,268.209 521.078,267.709 522.5,267.5 Z"/></g>
<g><path style="opacity:1" fill="#424242" d="M 488.5,269.5 C 484.081,270.972 479.414,271.638 474.5,271.5C 478.919,270.028 483.586,269.362 488.5,269.5 Z"/></g>
<g><path style="opacity:1" fill="#025902" d="M 532.5,273.5 C 515.489,273.395 498.489,273.728 481.5,274.5C 491.116,272.955 500.95,272.289 511,272.5C 518.341,272.5 525.508,272.834 532.5,273.5 Z"/></g>
<g><path style="opacity:1" fill="#078b00" d="M 532.5,273.5 C 605.23,279.11 664.396,310.11 710,366.5C 715.028,373.893 719.528,381.56 723.5,389.5C 582.504,391.498 441.171,392.165 299.5,391.5C 299.5,390.5 299.5,389.5 299.5,388.5C 317.787,356.044 342.787,329.877 374.5,310C 407.454,290.071 443.12,278.238 481.5,274.5C 498.489,273.728 515.489,273.395 532.5,273.5 Z"/></g>
<g><path style="opacity:1" fill="#046800" d="M 299.5,388.5 C 299.5,389.5 299.5,390.5 299.5,391.5C 441.171,392.165 582.504,391.498 723.5,389.5C 724.404,390.209 724.737,391.209 724.5,392.5C 582.5,392.5 440.5,392.5 298.5,392.5C 298.232,390.901 298.566,389.568 299.5,388.5 Z"/></g>
<g><path style="opacity:1" fill="#101010" d="M 772.5,494.5 C 758.167,494.5 743.833,494.5 729.5,494.5C 729.5,522.167 729.5,549.833 729.5,577.5C 729.5,623.167 729.5,668.833 729.5,714.5C 727.796,711.061 726.462,707.395 725.5,703.5C 725.5,699.833 725.5,696.167 725.5,692.5C 726.141,691.518 726.807,690.518 727.5,689.5C 727.043,688.702 726.376,688.369 725.5,688.5C 725.5,622.5 725.5,556.5 725.5,490.5C 741.837,490.667 758.17,490.5 774.5,490C 779.062,488.373 781.895,485.206 783,480.5C 783.667,472.5 783.667,464.5 783,456.5C 781.583,450.915 778.083,447.581 772.5,446.5C 757.009,445.504 741.342,445.17 725.5,445.5C 725.828,434.986 725.494,424.653 724.5,414.5C 582.334,413.5 440.001,413.167 297.5,413.5C 297.5,424.167 297.5,434.833 297.5,445.5C 280.991,445.17 264.658,445.504 248.5,446.5C 240.054,451.103 237.054,458.27 239.5,468C 239.667,472.5 239.833,477 240,481.5C 241.744,486.079 244.91,489.079 249.5,490.5C 265.325,491.496 281.325,491.83 297.5,491.5C 297.5,568.833 297.5,646.167 297.5,723.5C 296.527,725.139 295.194,726.473 293.5,727.5C 293.5,649.833 293.5,572.167 293.5,494.5C 277.429,494.954 261.429,494.454 245.5,493C 237.097,486.833 234.097,478.499 236.5,468C 233.688,456.637 237.354,448.304 247.5,443C 262.83,442.5 278.163,442.333 293.5,442.5C 293.334,433.161 293.5,423.827 294,414.5C 294.465,413.069 295.299,411.903 296.5,411C 439.833,410.333 583.167,410.333 726.5,411C 727.701,411.903 728.535,413.069 729,414.5C 729.5,423.827 729.666,433.161 729.5,442.5C 744.504,442.333 759.504,442.5 774.5,443C 779.91,444.743 783.744,448.243 786,453.5C 786.667,463.167 786.667,472.833 786,482.5C 783.869,489.129 779.369,493.129 772.5,494.5 Z"/></g>
<g><path style="opacity:1" fill="#098b00" d="M 724.5,414.5 C 724.5,425.167 724.5,435.833 724.5,446.5C 740.5,446.5 756.5,446.5 772.5,446.5C 778.083,447.581 781.583,450.915 783,456.5C 783.667,464.5 783.667,472.5 783,480.5C 781.895,485.206 779.062,488.373 774.5,490C 758.17,490.5 741.837,490.667 725.5,490.5C 725.5,556.5 725.5,622.5 725.5,688.5C 708.88,692.288 698.714,702.621 695,719.5C 692.078,724.822 688.078,725.822 683,722.5C 681.316,717.924 681.15,713.258 682.5,708.5C 678.862,708.738 676.029,710.404 674,713.5C 672.1,719.011 670.767,724.678 670,730.5C 667.062,736.673 662.729,738.006 657,734.5C 655.785,729.949 655.119,725.282 655,720.5C 654.027,718.36 652.527,716.693 650.5,715.5C 648.725,727.552 642.059,731.719 630.5,728C 629.978,727.439 629.645,726.772 629.5,726C 634.653,715.262 636.153,704.095 634,692.5C 632.604,688.208 630.104,684.708 626.5,682C 619.663,677.747 612.663,673.747 605.5,670C 594.666,663.574 592.333,655.074 598.5,644.5C 598,644.167 597.5,643.833 597,643.5C 584.398,651.712 579.064,663.379 581,678.5C 583.272,685.315 585.939,691.981 589,698.5C 590.487,705.73 588.654,711.897 583.5,717C 579.302,719.161 575.302,718.828 571.5,716C 566.744,710.321 563.744,703.821 562.5,696.5C 561.416,697.665 560.583,698.998 560,700.5C 559.935,709.615 558.935,718.615 557,727.5C 554.774,731.861 551.274,733.361 546.5,732C 543.688,730.023 541.022,727.856 538.5,725.5C 537.926,729.37 536.759,733.036 535,736.5C 530.615,740.756 526.615,740.423 523,735.5C 522.211,729.881 520.544,724.548 518,719.5C 513.288,714.457 508.955,709.123 505,703.5C 502.647,698.48 503.147,693.813 506.5,689.5C 502.526,688.459 498.859,689.293 495.5,692C 493.333,694.167 491.167,696.333 489,698.5C 486.325,704.534 483.659,710.534 481,716.5C 476.997,719.501 473.664,718.835 471,714.5C 470.192,712.577 469.692,710.577 469.5,708.5C 471.044,703.742 472.877,699.075 475,694.5C 477.041,680.25 471.874,669.583 459.5,662.5C 459.475,667.378 459.308,672.378 459,677.5C 458.529,679.246 457.862,680.913 457,682.5C 450.356,689.476 443.356,696.143 436,702.5C 431.719,707.731 429.719,713.731 430,720.5C 425.747,715.993 423.08,710.66 422,704.5C 421,703.167 420,703.167 419,704.5C 418.333,705.833 417.667,707.167 417,708.5C 416.667,716.167 416.333,723.833 416,731.5C 413.803,739.174 408.97,742.007 401.5,740C 398.9,733.297 395.4,727.13 391,721.5C 388.131,719.15 384.965,717.484 381.5,716.5C 383.233,722.067 382.733,727.4 380,732.5C 374.536,735.916 370.203,734.916 367,729.5C 365.638,719.467 364.138,709.467 362.5,699.5C 361.325,699.281 360.325,699.614 359.5,700.5C 357.924,704.238 355.757,707.571 353,710.5C 354.386,702.878 353.386,695.544 350,688.5C 344.947,682.448 340.281,676.115 336,669.5C 335.333,667.5 334.667,665.5 334,663.5C 333.763,658.408 333.596,653.408 333.5,648.5C 321.93,655.641 316.763,665.974 318,679.5C 320.652,686.429 322.152,693.595 322.5,701C 322.507,704.258 322.007,707.425 321,710.5C 318.651,715.198 316.318,719.864 314,724.5C 313.333,727.833 313.333,731.167 314,734.5C 314.465,735.931 315.299,737.097 316.5,738C 306.024,736.997 301.69,731.163 303.5,720.5C 302.041,720.433 300.708,720.766 299.5,721.5C 298.501,644.668 298.167,567.668 298.5,490.5C 282.167,490.5 265.833,490.5 249.5,490.5C 244.91,489.079 241.744,486.079 240,481.5C 239.833,477 239.667,472.5 239.5,468C 237.054,458.27 240.054,451.103 248.5,446.5C 265.167,446.5 281.833,446.5 298.5,446.5C 298.5,435.833 298.5,425.167 298.5,414.5C 440.5,414.5 582.5,414.5 724.5,414.5 Z"/></g>
<g><path style="opacity:1" fill="#024c01" d="M 724.5,414.5 C 582.5,414.5 440.5,414.5 298.5,414.5C 298.5,425.167 298.5,435.833 298.5,446.5C 281.833,446.5 265.167,446.5 248.5,446.5C 264.658,445.504 280.991,445.17 297.5,445.5C 297.5,434.833 297.5,424.167 297.5,413.5C 440.001,413.167 582.334,413.5 724.5,414.5 Z"/></g>
<g><path style="opacity:1" fill="#024b00" d="M 724.5,414.5 C 725.494,424.653 725.828,434.986 725.5,445.5C 741.342,445.17 757.009,445.504 772.5,446.5C 756.5,446.5 740.5,446.5 724.5,446.5C 724.5,435.833 724.5,425.167 724.5,414.5 Z"/></g>
<g><path style="opacity:1" fill="#e4e4e4" d="M 772.5,494.5 C 758.677,495.496 744.677,495.829 730.5,495.5C 730.831,523.005 730.498,550.338 729.5,577.5C 729.5,549.833 729.5,522.167 729.5,494.5C 743.833,494.5 758.167,494.5 772.5,494.5 Z"/></g>
<g><path style="opacity:1" fill="#056300" d="M 249.5,490.5 C 265.833,490.5 282.167,490.5 298.5,490.5C 298.167,567.668 298.501,644.668 299.5,721.5C 299.167,722.5 298.5,723.167 297.5,723.5C 297.5,646.167 297.5,568.833 297.5,491.5C 281.325,491.83 265.325,491.496 249.5,490.5 Z"/></g>
<g><path style="opacity:1" fill="#fb6d3f" d="M 725.5,688.5 C 726.376,688.369 727.043,688.702 727.5,689.5C 726.807,690.518 726.141,691.518 725.5,692.5C 722.833,696.167 722.833,699.833 725.5,703.5C 726.462,707.395 727.796,711.061 729.5,714.5C 730.9,721.268 731.9,728.102 732.5,735C 733.066,752.09 725.399,763.257 709.5,768.5C 720.924,762.638 725.09,753.305 722,740.5C 721.197,737.756 720.197,735.089 719,732.5C 718.282,731.549 717.449,731.383 716.5,732C 714.938,736.08 713.438,736.247 712,732.5C 711.043,724.552 711.543,716.719 713.5,709C 713.167,708.167 712.833,707.333 712.5,706.5C 711.086,707.624 709.586,708.624 708,709.5C 702.165,717.832 696.832,726.499 692,735.5C 689.683,738.097 686.85,738.93 683.5,738C 681.317,735.65 678.984,733.483 676.5,731.5C 673.941,743.929 666.608,748.763 654.5,746C 650.994,743.66 647.994,740.826 645.5,737.5C 641.691,744.831 635.691,747.665 627.5,746C 625.383,744.269 623.883,742.102 623,739.5C 621.268,731.925 620.101,724.258 619.5,716.5C 615.428,719.404 612.261,723.071 610,727.5C 611.949,719.665 612.616,711.665 612,703.5C 607.803,695.767 603.636,688.1 599.5,680.5C 598.139,682.028 596.972,683.695 596,685.5C 595.688,694.889 596.021,704.223 597,713.5C 594.444,721.815 589.61,728.315 582.5,733C 573.362,735.356 568.696,731.856 568.5,722.5C 566.61,722.297 565.11,722.963 564,724.5C 561.14,730.081 558.474,735.748 556,741.5C 551.556,746.923 546.223,747.923 540,744.5C 536.269,751.78 530.435,754.28 522.5,752C 516.058,747.394 510.058,742.228 504.5,736.5C 503.941,741.689 501.608,745.856 497.5,749C 491.407,749.911 488.407,747.244 488.5,741C 489.21,736.735 490.377,732.568 492,728.5C 492.667,726.5 492.667,724.5 492,722.5C 489.708,721.399 488.208,722.232 487.5,725C 473.541,731.443 463.375,727.61 457,713.5C 454.875,707.057 455.041,700.724 457.5,694.5C 457,694.167 456.5,693.833 456,693.5C 448.228,699.038 442.895,706.371 440,715.5C 439.917,721.942 439.251,728.275 438,734.5C 436.612,735.554 435.112,735.72 433.5,735C 431.605,732.194 429.272,729.86 426.5,728C 425.056,727.219 423.723,727.386 422.5,728.5C 424.794,737.417 422.794,745.251 416.5,752C 406.893,756.93 399.226,754.93 393.5,746C 392.256,745.544 391.423,746.044 391,747.5C 389.167,745.167 387.333,742.833 385.5,740.5C 383.968,748.761 379.635,754.928 372.5,759C 362.93,760.965 356.097,757.465 352,748.5C 351.333,745.5 351.333,742.5 352,739.5C 354.403,734.697 356.236,729.697 357.5,724.5C 357.563,722.519 356.896,720.852 355.5,719.5C 346.103,727.507 339.603,725.507 336,713.5C 335.675,709.33 335.509,705.33 335.5,701.5C 324.556,714.394 321.889,728.894 327.5,745C 326.498,753.186 321.831,756.52 313.5,755C 309.5,752.333 306.167,749 303.5,745C 302.256,744.544 301.423,745.044 301,746.5C 299.742,756.3 302.242,764.966 308.5,772.5C 296.009,766.383 289.675,756.217 289.5,742C 289.327,736.693 290.661,731.86 293.5,727.5C 295.194,726.473 296.527,725.139 297.5,723.5C 298.5,723.167 299.167,722.5 299.5,721.5C 300.708,720.766 302.041,720.433 303.5,720.5C 301.69,731.163 306.024,736.997 316.5,738C 315.299,737.097 314.465,735.931 314,734.5C 313.333,731.167 313.333,727.833 314,724.5C 316.318,719.864 318.651,715.198 321,710.5C 322.007,707.425 322.507,704.258 322.5,701C 322.152,693.595 320.652,686.429 318,679.5C 316.763,665.974 321.93,655.641 333.5,648.5C 333.596,653.408 333.763,658.408 334,663.5C 334.667,665.5 335.333,667.5 336,669.5C 340.281,676.115 344.947,682.448 350,688.5C 353.386,695.544 354.386,702.878 353,710.5C 355.757,707.571 357.924,704.238 359.5,700.5C 360.325,699.614 361.325,699.281 362.5,699.5C 364.138,709.467 365.638,719.467 367,729.5C 370.203,734.916 374.536,735.916 380,732.5C 382.733,727.4 383.233,722.067 381.5,716.5C 384.965,717.484 388.131,719.15 391,721.5C 395.4,727.13 398.9,733.297 401.5,740C 408.97,742.007 413.803,739.174 416,731.5C 416.333,723.833 416.667,716.167 417,708.5C 417.667,707.167 418.333,705.833 419,704.5C 420,703.167 421,703.167 422,704.5C 423.08,710.66 425.747,715.993 430,720.5C 429.719,713.731 431.719,707.731 436,702.5C 443.356,696.143 450.356,689.476 457,682.5C 457.862,680.913 458.529,679.246 459,677.5C 459.308,672.378 459.475,667.378 459.5,662.5C 471.874,669.583 477.041,680.25 475,694.5C 472.877,699.075 471.044,703.742 469.5,708.5C 469.692,710.577 470.192,712.577 471,714.5C 473.664,718.835 476.997,719.501 481,716.5C 483.659,710.534 486.325,704.534 489,698.5C 491.167,696.333 493.333,694.167 495.5,692C 498.859,689.293 502.526,688.459 506.5,689.5C 503.147,693.813 502.647,698.48 505,703.5C 508.955,709.123 513.288,714.457 518,719.5C 520.544,724.548 522.211,729.881 523,735.5C 526.615,740.423 530.615,740.756 535,736.5C 536.759,733.036 537.926,729.37 538.5,725.5C 541.022,727.856 543.688,730.023 546.5,732C 551.274,733.361 554.774,731.861 557,727.5C 558.935,718.615 559.935,709.615 560,700.5C 560.583,698.998 561.416,697.665 562.5,696.5C 563.744,703.821 566.744,710.321 571.5,716C 575.302,718.828 579.302,719.161 583.5,717C 588.654,711.897 590.487,705.73 589,698.5C 585.939,691.981 583.272,685.315 581,678.5C 579.064,663.379 584.398,651.712 597,643.5C 597.5,643.833 598,644.167 598.5,644.5C 592.333,655.074 594.666,663.574 605.5,670C 612.663,673.747 619.663,677.747 626.5,682C 630.104,684.708 632.604,688.208 634,692.5C 636.153,704.095 634.653,715.262 629.5,726C 629.645,726.772 629.978,727.439 630.5,728C 642.059,731.719 648.725,727.552 650.5,715.5C 652.527,716.693 654.027,718.36 655,720.5C 655.119,725.282 655.785,729.949 657,734.5C 662.729,738.006 667.062,736.673 670,730.5C 670.767,724.678 672.1,719.011 674,713.5C 676.029,710.404 678.862,708.738 682.5,708.5C 681.15,713.258 681.316,717.924 683,722.5C 688.078,725.822 692.078,724.822 695,719.5C 698.714,702.621 708.88,692.288 725.5,688.5 Z"/></g>
<g><path style="opacity:1" fill="#ec6f3a" d="M 571.5,671.5 C 572.693,671.97 573.36,672.97 573.5,674.5C 572.463,679.536 570.129,683.869 566.5,687.5C 564.777,685.053 564.277,682.387 565,679.5C 567.386,676.922 569.553,674.256 571.5,671.5 Z"/></g>
<g><path style="opacity:1" fill="#ffbc40" d="M 709.5,768.5 C 704.077,770.426 698.41,771.926 692.5,773C 660.523,775.293 628.523,777.126 596.5,778.5C 576.663,778.828 556.996,779.495 537.5,780.5C 474.11,781.316 410.777,779.982 347.5,776.5C 337.699,775.095 327.699,774.428 317.5,774.5C 314.246,774.793 311.246,774.126 308.5,772.5C 302.242,764.966 299.742,756.3 301,746.5C 301.423,745.044 302.256,744.544 303.5,745C 306.167,749 309.5,752.333 313.5,755C 321.831,756.52 326.498,753.186 327.5,745C 321.889,728.894 324.556,714.394 335.5,701.5C 335.509,705.33 335.675,709.33 336,713.5C 339.603,725.507 346.103,727.507 355.5,719.5C 356.896,720.852 357.563,722.519 357.5,724.5C 356.236,729.697 354.403,734.697 352,739.5C 351.333,742.5 351.333,745.5 352,748.5C 356.097,757.465 362.93,760.965 372.5,759C 379.635,754.928 383.968,748.761 385.5,740.5C 387.333,742.833 389.167,745.167 391,747.5C 391.423,746.044 392.256,745.544 393.5,746C 399.226,754.93 406.893,756.93 416.5,752C 422.794,745.251 424.794,737.417 422.5,728.5C 423.723,727.386 425.056,727.219 426.5,728C 429.272,729.86 431.605,732.194 433.5,735C 435.112,735.72 436.612,735.554 438,734.5C 439.251,728.275 439.917,721.942 440,715.5C 442.895,706.371 448.228,699.038 456,693.5C 456.5,693.833 457,694.167 457.5,694.5C 455.041,700.724 454.875,707.057 457,713.5C 463.375,727.61 473.541,731.443 487.5,725C 488.208,722.232 489.708,721.399 492,722.5C 492.667,724.5 492.667,726.5 492,728.5C 490.377,732.568 489.21,736.735 488.5,741C 488.407,747.244 491.407,749.911 497.5,749C 501.608,745.856 503.941,741.689 504.5,736.5C 510.058,742.228 516.058,747.394 522.5,752C 530.435,754.28 536.269,751.78 540,744.5C 546.223,747.923 551.556,746.923 556,741.5C 558.474,735.748 561.14,730.081 564,724.5C 565.11,722.963 566.61,722.297 568.5,722.5C 568.696,731.856 573.362,735.356 582.5,733C 589.61,728.315 594.444,721.815 597,713.5C 596.021,704.223 595.688,694.889 596,685.5C 596.972,683.695 598.139,682.028 599.5,680.5C 603.636,688.1 607.803,695.767 612,703.5C 612.616,711.665 611.949,719.665 610,727.5C 612.261,723.071 615.428,719.404 619.5,716.5C 620.101,724.258 621.268,731.925 623,739.5C 623.883,742.102 625.383,744.269 627.5,746C 635.691,747.665 641.691,744.831 645.5,737.5C 647.994,740.826 650.994,743.66 654.5,746C 666.608,748.763 673.941,743.929 676.5,731.5C 678.984,733.483 681.317,735.65 683.5,738C 686.85,738.93 689.683,738.097 692,735.5C 696.832,726.499 702.165,717.832 708,709.5C 709.586,708.624 711.086,707.624 712.5,706.5C 712.833,707.333 713.167,708.167 713.5,709C 711.543,716.719 711.043,724.552 712,732.5C 713.438,736.247 714.938,736.08 716.5,732C 717.449,731.383 718.282,731.549 719,732.5C 720.197,735.089 721.197,737.756 722,740.5C 725.09,753.305 720.924,762.638 709.5,768.5 Z"/></g>
<g><path style="opacity:1" fill="#ef6e3b" d="M 427.5,681.5 C 428.552,681.351 429.552,681.517 430.5,682C 428.331,684.819 426.831,687.986 426,691.5C 425.092,693.439 423.592,694.439 421.5,694.5C 420.57,688.699 422.57,684.366 427.5,681.5 Z"/></g>
<g><path style="opacity:1" fill="#f46d3d" d="M 694.5,681.5 C 697.516,689.571 695.183,696.237 687.5,701.5C 685.534,698.451 685.034,695.118 686,691.5C 689.383,688.618 692.216,685.285 694.5,681.5 Z"/></g>
<g><path style="opacity:1" fill="#f06e3c" d="M 310.5,691.5 C 311.748,692.334 312.415,693.667 312.5,695.5C 312.333,696.833 312.167,698.167 312,699.5C 309.333,704.167 306.667,708.833 304,713.5C 301.517,710.211 300.517,706.545 301,702.5C 304.773,699.236 307.94,695.57 310.5,691.5 Z"/></g>
<g><path style="opacity:1" fill="#1f6a03" d="M 725.5,692.5 C 725.5,696.167 725.5,699.833 725.5,703.5C 722.833,699.833 722.833,696.167 725.5,692.5 Z"/></g>
<g><path style="opacity:1" fill="#ffd17d" d="M 317.5,774.5 C 327.699,774.428 337.699,775.095 347.5,776.5C 337.301,776.572 327.301,775.905 317.5,774.5 Z"/></g>
<g><path style="opacity:1" fill="#ffedce" d="M 596.5,778.5 C 577.028,780.227 557.362,780.894 537.5,780.5C 556.996,779.495 576.663,778.828 596.5,778.5 Z"/></g>
</svg>
