<?xml version="1.0" encoding="UTF-8"?>
<!DOCTYPE svg PUBLIC "-//W3C//DTD SVG 1.1//EN" "http://www.w3.org/Graphics/SVG/1.1/DTD/svg11.dtd">
<svg xmlns="http://www.w3.org/2000/svg" version="1.1" width="1024px" height="1024px" style="shape-rendering:geometricPrecision; text-rendering:geometricPrecision; image-rendering:optimizeQuality; fill-rule:evenodd; clip-rule:evenodd" xmlns:xlink="http://www.w3.org/1999/xlink">
<g><path style="opacity:0.951" fill="#000000" d="M 502.5,65.5 C 525.817,62.4075 542.983,71.0741 554,91.5C 562.3,114.479 557.133,133.646 538.5,149C 627.053,155.635 705.72,186.635 774.5,242C 804.893,268.374 830.059,298.874 850,333.5C 853.25,337.878 853.917,342.544 852,347.5C 851.097,348.701 849.931,349.535 848.5,350C 623.42,350.998 398.42,350.665 173.5,349C 171.523,346.74 170.523,344.073 170.5,341C 171.006,336.485 172.506,332.319 175,328.5C 212.944,266.558 264.777,220.058 330.5,189C 379.759,166.435 431.425,153.102 485.5,149C 466.867,133.646 461.7,114.479 470,91.5C 477.172,78.1517 488.006,69.485 502.5,65.5 Z"/></g>
<g><path style="opacity:1" fill="#078b00" d="M 492.5,155.5 C 584.393,152.3 668.393,176.133 744.5,227C 782.22,253.717 813.386,286.55 838,325.5C 841.6,331.367 844.6,337.367 847,343.5C 623.903,344.666 400.736,344.833 177.5,344C 176.424,342.274 176.257,340.441 177,338.5C 207.401,284.766 249.234,242.266 302.5,211C 361.543,177.575 424.876,159.075 492.5,155.5 Z"/></g>
<g><path style="opacity:0.935" fill="#000000" d="M 854.5,801.5 C 852.735,802.461 850.735,802.795 848.5,802.5C 848.5,701.5 848.5,600.5 848.5,499.5C 873.339,499.831 898.006,499.498 922.5,498.5C 931.406,496.762 936.906,491.429 939,482.5C 939.667,470.167 939.667,457.833 939,445.5C 936.906,436.571 931.406,431.238 922.5,429.5C 898.006,428.502 873.339,428.169 848.5,428.5C 848.83,411.991 848.496,395.658 847.5,379.5C 623.667,378.334 399.667,378.167 175.5,379C 174.508,395.423 174.175,411.923 174.5,428.5C 149.164,428.333 123.831,428.5 98.5,429C 84.2935,436.438 79.2935,448.104 83.5,464C 79.2935,479.896 84.2935,491.562 98.5,499C 123.831,499.5 149.164,499.667 174.5,499.5C 174.5,620.5 174.5,741.5 174.5,862.5C 172.735,865.709 170.735,868.709 168.5,871.5C 168.107,749.834 167.774,628.167 167.5,506.5C 143.11,506.536 118.776,505.702 94.5,504C 85.7439,500.245 80.2439,493.745 78,484.5C 77.3333,470.833 77.3333,457.167 78,443.5C 80.2439,434.255 85.7439,427.755 94.5,424C 118.776,422.298 143.11,421.464 167.5,421.5C 167.51,406.089 168.344,390.756 170,375.5C 170.903,374.299 172.069,373.465 173.5,373C 398.833,372.333 624.167,372.333 849.5,373C 852.102,373.935 853.602,375.768 854,378.5C 854.746,392.827 855.246,407.16 855.5,421.5C 879.89,421.497 904.223,422.33 928.5,424C 937.256,427.755 942.756,434.255 945,443.5C 945.667,457.167 945.667,470.833 945,484.5C 942.756,493.745 937.256,500.245 928.5,504C 904.223,505.67 879.89,506.503 855.5,506.5C 855.47,604.835 855.137,703.168 854.5,801.5 Z"/></g>
<g><path style="opacity:1" fill="#098b00" d="M 847.5,379.5 C 847.5,396.167 847.5,412.833 847.5,429.5C 872.5,429.5 897.5,429.5 922.5,429.5C 931.406,431.238 936.906,436.571 939,445.5C 939.667,457.833 939.667,470.167 939,482.5C 936.906,491.429 931.406,496.762 922.5,498.5C 897.5,498.5 872.5,498.5 847.5,498.5C 847.5,600.167 847.5,701.833 847.5,803.5C 824.436,810.931 810.602,826.598 806,850.5C 801.398,860.506 794.731,862.506 786,856.5C 783.921,849.946 784.088,843.446 786.5,837C 786.138,835.115 784.971,834.281 783,834.5C 774.498,837.501 769.998,843.501 769.5,852.5C 768.419,855.627 767.753,858.96 767.5,862.5C 766.482,873.021 760.816,878.521 750.5,879C 746.942,877.108 744.442,874.275 743,870.5C 742.667,864.5 742.333,858.5 742,852.5C 740.756,848.078 737.923,845.744 733.5,845.5C 734.177,854.818 730.51,861.818 722.5,866.5C 718.566,867.36 714.566,867.693 710.5,867.5C 706.806,867.152 703.806,865.485 701.5,862.5C 705.743,853.197 708.91,843.53 711,833.5C 714.498,816.68 709.665,802.846 696.5,792C 686.825,785.827 676.825,780.16 666.5,775C 658.95,770.45 653.116,764.283 649,756.5C 647.524,751.924 647.19,747.257 648,742.5C 650.393,739.048 652.226,735.381 653.5,731.5C 646.807,733.669 641.307,737.669 637,743.5C 626.92,756.153 623.253,770.487 626,786.5C 629.722,797.608 633.722,808.608 638,819.5C 640.615,830.202 638.115,839.368 630.5,847C 623.567,850.637 616.9,850.304 610.5,846C 602.481,837.447 598.481,827.28 598.5,815.5C 597.178,815.33 596.011,815.663 595,816.5C 593.601,819.363 592.601,822.363 592,825.5C 590.871,835.463 590.204,845.463 590,855.5C 589.922,862.491 587.089,867.991 581.5,872C 576.889,873.007 572.555,872.34 568.5,870C 565.289,866.958 562.289,863.791 559.5,860.5C 558.914,860.709 558.414,861.043 558,861.5C 558.041,869.052 555.541,875.552 550.5,881C 545.266,884.555 540.433,884.055 536,879.5C 532.914,872.077 530.581,864.41 529,856.5C 523.087,847.916 516.42,839.916 509,832.5C 504.816,826.431 503.149,819.765 504,812.5C 504.837,810.156 506.171,808.156 508,806.5C 508.49,805.207 508.657,803.873 508.5,802.5C 493.92,804.58 483.42,812.246 477,825.5C 475.213,833.888 471.713,841.388 466.5,848C 459.684,851.225 454.851,849.392 452,842.5C 450.079,837.516 450.079,832.516 452,827.5C 466.139,801.269 460.973,779.769 436.5,763C 435.207,762.51 433.873,762.343 432.5,762.5C 437.794,776.124 435.628,788.458 426,799.5C 416.035,807.796 406.369,816.463 397,825.5C 390.753,832.663 387.92,840.996 388.5,850.5C 388.737,851.791 388.404,852.791 387.5,853.5C 380.966,846.095 376.799,837.429 375,827.5C 373.951,826.483 372.784,826.316 371.5,827C 369.064,829.707 367.564,832.873 367,836.5C 366.94,848.903 366.273,861.237 365,873.5C 361.188,882.657 354.355,886.49 344.5,885C 343.667,884.167 342.833,883.333 342,882.5C 337.584,869.436 330.084,858.603 319.5,850C 317.091,848.293 314.425,847.46 311.5,847.5C 314.562,855.465 314.062,863.132 310,870.5C 304.177,877.479 297.844,878.146 291,872.5C 290.138,870.913 289.471,869.246 289,867.5C 286.611,851.775 283.944,836.108 281,820.5C 279.817,819.269 278.651,819.269 277.5,820.5C 275.142,826.571 271.809,831.904 267.5,836.5C 266.833,836.5 266.5,836.167 266.5,835.5C 269.714,821.995 267.214,809.662 259,798.5C 250.807,789.155 243.64,779.155 237.5,768.5C 237.59,765.848 236.924,763.515 235.5,761.5C 235.334,756.821 235.501,752.155 236,747.5C 237.903,745.559 238.736,743.226 238.5,740.5C 235.072,740.547 232.072,741.713 229.5,744C 222.305,750.24 216.972,757.74 213.5,766.5C 212.076,768.515 211.41,770.848 211.5,773.5C 211.334,778.844 211.501,784.177 212,789.5C 215.329,800.646 217.829,811.979 219.5,823.5C 219.439,826.903 218.939,830.236 218,833.5C 212.893,842.944 208.226,852.611 204,862.5C 202.747,869.232 204.247,875.232 208.5,880.5C 198.436,880.986 191.603,876.319 188,866.5C 187.828,861.798 187.328,857.132 186.5,852.5C 182.189,855.48 178.189,858.813 174.5,862.5C 174.5,741.5 174.5,620.5 174.5,499.5C 149.164,499.667 123.831,499.5 98.5,499C 84.2935,491.562 79.2935,479.896 83.5,464C 79.2935,448.104 84.2935,436.438 98.5,429C 123.831,428.5 149.164,428.333 174.5,428.5C 174.175,411.923 174.508,395.423 175.5,379C 399.667,378.167 623.667,378.334 847.5,379.5 Z"/></g>
<g><path style="opacity:1" fill="#034500" d="M 847.5,379.5 C 848.496,395.658 848.83,411.991 848.5,428.5C 873.339,428.169 898.006,428.502 922.5,429.5C 897.5,429.5 872.5,429.5 847.5,429.5C 847.5,412.833 847.5,396.167 847.5,379.5 Z"/></g>
<g><path style="opacity:1" fill="#034500" d="M 922.5,498.5 C 898.006,499.498 873.339,499.831 848.5,499.5C 848.5,600.5 848.5,701.5 848.5,802.5C 848.5,803.167 848.167,803.5 847.5,803.5C 847.5,701.833 847.5,600.167 847.5,498.5C 872.5,498.5 897.5,498.5 922.5,498.5 Z"/></g>
<g><path style="opacity:0.998" fill="#fc6c3f" d="M 710.5,867.5 C 713.976,868.643 717.642,868.81 721.5,868C 722.056,867.617 722.389,867.117 722.5,866.5C 730.51,861.818 734.177,854.818 733.5,845.5C 737.923,845.744 740.756,848.078 742,852.5C 742.333,858.5 742.667,864.5 743,870.5C 744.442,874.275 746.942,877.108 750.5,879C 760.816,878.521 766.482,873.021 767.5,862.5C 768.222,862.082 768.722,861.416 769,860.5C 769.497,857.854 769.664,855.187 769.5,852.5C 769.998,843.501 774.498,837.501 783,834.5C 784.971,834.281 786.138,835.115 786.5,837C 784.088,843.446 783.921,849.946 786,856.5C 794.731,862.506 801.398,860.506 806,850.5C 810.602,826.598 824.436,810.931 847.5,803.5C 848.167,803.5 848.5,803.167 848.5,802.5C 850.735,802.795 852.735,802.461 854.5,801.5C 856.484,801.484 857.484,802.484 857.5,804.5C 857.132,806.175 856.132,807.175 854.5,807.5C 851.148,809.714 849.815,812.881 850.5,817C 850.357,821.736 851.691,825.903 854.5,829.5C 860.905,845.356 864.572,861.856 865.5,879C 864.718,905.767 851.718,923.433 826.5,932C 821.518,933.329 816.518,934.496 811.5,935.5C 811.414,934.504 811.748,933.671 812.5,933C 847.717,924.723 857.717,904.057 842.5,871C 841.5,870.333 840.5,870.333 839.5,871C 838.025,873.309 836.358,875.476 834.5,877.5C 832.771,875.149 832.104,872.482 832.5,869.5C 832.303,858.105 832.97,846.772 834.5,835.5C 835.301,833.958 835.634,832.292 835.5,830.5C 830.768,831.71 826.934,834.377 824,838.5C 815.708,851.583 807.541,864.749 799.5,878C 796.041,881.114 792.041,882.114 787.5,881C 783.833,878.667 780.833,875.667 778.5,872C 777.207,871.51 775.873,871.343 774.5,871.5C 772.17,888.326 762.503,896.16 745.5,895C 743.754,894.529 742.087,893.862 740.5,893C 735.284,889.285 730.951,884.785 727.5,879.5C 721.65,890.926 712.316,895.759 699.5,894C 693.893,889.531 690.727,883.698 690,876.5C 688.744,866.541 688.244,856.541 688.5,846.5C 687.448,846.351 686.448,846.517 685.5,847C 679.898,852.408 674.898,858.241 670.5,864.5C 670.167,863.833 669.833,863.167 669.5,862.5C 674.367,851.708 676.2,840.375 675,828.5C 670.539,818.038 665.205,808.038 659,798.5C 658.338,796.187 657.838,793.854 657.5,791.5C 655.278,791.178 653.444,791.845 652,793.5C 650.257,796.957 649.257,800.623 649,804.5C 648.898,814.727 649.731,824.894 651.5,835C 649.292,850.562 641.958,863.229 629.5,873C 614.474,877.657 606.474,872.157 605.5,856.5C 601.83,856.327 599.33,857.993 598,861.5C 594.14,869.416 590.473,877.416 587,885.5C 583.271,891.725 577.771,894.725 570.5,894.5C 566.381,894.713 562.715,893.88 559.5,892C 555.383,901.614 548.049,905.614 537.5,904C 534.382,902.941 531.382,901.608 528.5,900C 520.864,893.365 513.53,886.365 506.5,879C 505.552,878.517 504.552,878.351 503.5,878.5C 504.229,887.181 500.896,893.681 493.5,898C 484.642,899.154 479.975,895.154 479.5,886C 480.52,879.604 482.354,873.438 485,867.5C 485.793,863.577 485.626,859.744 484.5,856C 483.5,855.333 482.5,855.333 481.5,856C 479.773,859.393 477.106,861.726 473.5,863C 449.459,868.209 434.293,858.709 428,834.5C 427.333,829.833 427.333,825.167 428,820.5C 429.467,817.242 430.633,813.908 431.5,810.5C 428.774,810.264 426.441,811.097 424.5,813C 406.765,828.86 399.265,848.694 402,872.5C 400.862,877.283 398.028,878.617 393.5,876.5C 390.957,872.246 387.623,868.746 383.5,866C 381.091,864.293 378.425,863.46 375.5,863.5C 380.007,878.974 376.673,892.474 365.5,904C 350.782,910.98 339.115,907.646 330.5,894C 329.552,893.517 328.552,893.351 327.5,893.5C 327.719,894.675 327.386,895.675 326.5,896.5C 324.167,893.167 321.833,889.833 319.5,886.5C 318.311,885.571 316.978,885.238 315.5,885.5C 313.745,907.359 302.078,916.859 280.5,914C 267.429,907.359 262.263,896.859 265,882.5C 268.055,876.667 270.722,870.667 273,864.5C 273.667,861.167 273.667,857.833 273,854.5C 272.653,852.82 271.653,851.82 270,851.5C 263.568,860.293 255.735,861.793 246.5,856C 243.459,852.291 241.292,848.124 240,843.5C 239.391,836.811 239.557,830.144 240.5,823.5C 239.448,823.351 238.448,823.517 237.5,824C 227.983,836.03 222.983,849.696 222.5,865C 223.49,873.315 224.49,881.648 225.5,890C 225.796,903.703 219.129,909.703 205.5,908C 198.219,904.386 192.552,899.052 188.5,892C 187.552,891.517 186.552,891.351 185.5,891.5C 181.922,908.644 185.922,923.644 197.5,936.5C 183.909,931.409 174.409,922.076 169,908.5C 163.703,896.135 163.536,883.802 168.5,871.5C 170.735,868.709 172.735,865.709 174.5,862.5C 178.189,858.813 182.189,855.48 186.5,852.5C 187.328,857.132 187.828,861.798 188,866.5C 191.603,876.319 198.436,880.986 208.5,880.5C 204.247,875.232 202.747,869.232 204,862.5C 208.226,852.611 212.893,842.944 218,833.5C 218.939,830.236 219.439,826.903 219.5,823.5C 217.829,811.979 215.329,800.646 212,789.5C 211.501,784.177 211.334,778.844 211.5,773.5C 212.924,771.485 213.59,769.152 213.5,766.5C 216.972,757.74 222.305,750.24 229.5,744C 232.072,741.713 235.072,740.547 238.5,740.5C 238.736,743.226 237.903,745.559 236,747.5C 235.501,752.155 235.334,756.821 235.5,761.5C 235.41,764.152 236.076,766.485 237.5,768.5C 243.64,779.155 250.807,789.155 259,798.5C 267.214,809.662 269.714,821.995 266.5,835.5C 265.427,836.251 265.26,837.251 266,838.5C 266.717,837.956 267.217,837.289 267.5,836.5C 271.809,831.904 275.142,826.571 277.5,820.5C 278.651,819.269 279.817,819.269 281,820.5C 283.944,836.108 286.611,851.775 289,867.5C 289.471,869.246 290.138,870.913 291,872.5C 297.844,878.146 304.177,877.479 310,870.5C 314.062,863.132 314.562,855.465 311.5,847.5C 314.425,847.46 317.091,848.293 319.5,850C 330.084,858.603 337.584,869.436 342,882.5C 342.833,883.333 343.667,884.167 344.5,885C 354.355,886.49 361.188,882.657 365,873.5C 366.273,861.237 366.94,848.903 367,836.5C 367.564,832.873 369.064,829.707 371.5,827C 372.784,826.316 373.951,826.483 375,827.5C 376.799,837.429 380.966,846.095 387.5,853.5C 388.122,854.627 388.955,855.627 390,856.5C 390.405,854.225 389.905,852.225 388.5,850.5C 387.92,840.996 390.753,832.663 397,825.5C 406.369,816.463 416.035,807.796 426,799.5C 435.628,788.458 437.794,776.124 432.5,762.5C 433.873,762.343 435.207,762.51 436.5,763C 460.973,779.769 466.139,801.269 452,827.5C 450.079,832.516 450.079,837.516 452,842.5C 454.851,849.392 459.684,851.225 466.5,848C 471.713,841.388 475.213,833.888 477,825.5C 483.42,812.246 493.92,804.58 508.5,802.5C 508.657,803.873 508.49,805.207 508,806.5C 506.171,808.156 504.837,810.156 504,812.5C 503.149,819.765 504.816,826.431 509,832.5C 516.42,839.916 523.087,847.916 529,856.5C 530.581,864.41 532.914,872.077 536,879.5C 540.433,884.055 545.266,884.555 550.5,881C 555.541,875.552 558.041,869.052 558,861.5C 558.414,861.043 558.914,860.709 559.5,860.5C 562.289,863.791 565.289,866.958 568.5,870C 572.555,872.34 576.889,873.007 581.5,872C 587.089,867.991 589.922,862.491 590,855.5C 590.204,845.463 590.871,835.463 592,825.5C 592.601,822.363 593.601,819.363 595,816.5C 596.011,815.663 597.178,815.33 598.5,815.5C 598.481,827.28 602.481,837.447 610.5,846C 616.9,850.304 623.567,850.637 630.5,847C 638.115,839.368 640.615,830.202 638,819.5C 633.722,808.608 629.722,797.608 626,786.5C 623.253,770.487 626.92,756.153 637,743.5C 641.307,737.669 646.807,733.669 653.5,731.5C 652.226,735.381 650.393,739.048 648,742.5C 647.19,747.257 647.524,751.924 649,756.5C 653.116,764.283 658.95,770.45 666.5,775C 676.825,780.16 686.825,785.827 696.5,792C 709.665,802.846 714.498,816.68 711,833.5C 708.91,843.53 705.743,853.197 701.5,862.5C 703.806,865.485 706.806,867.152 710.5,867.5 Z"/></g>
<g><path style="opacity:1" fill="#b3762b" d="M 235.5,761.5 C 236.924,763.515 237.59,765.848 237.5,768.5C 236.076,766.485 235.41,764.152 235.5,761.5 Z"/></g>
<g><path style="opacity:1" fill="#a37827" d="M 213.5,766.5 C 213.59,769.152 212.924,771.485 211.5,773.5C 211.41,770.848 212.076,768.515 213.5,766.5 Z"/></g>
<g><path style="opacity:1" fill="#f36d3c" d="M 611.5,776.5 C 612.748,777.334 613.415,778.667 613.5,780.5C 613.333,781.833 613.167,783.167 613,784.5C 610.35,790.467 607.184,796.134 603.5,801.5C 600.029,797.863 598.862,793.529 600,788.5C 604.037,784.631 607.87,780.631 611.5,776.5 Z"/></g>
<g><path style="opacity:0.995" fill="#ffbc3f" d="M 834.5,835.5 C 831.536,846.715 830.869,858.048 832.5,869.5C 832.104,872.482 832.771,875.149 834.5,877.5C 836.358,875.476 838.025,873.309 839.5,871C 840.5,870.333 841.5,870.333 842.5,871C 857.717,904.057 847.717,924.723 812.5,933C 811.748,933.671 811.414,934.504 811.5,935.5C 802.229,937.086 792.896,938.253 783.5,939C 590.495,952.954 397.495,952.954 204.5,939C 201.97,938.621 199.637,937.787 197.5,936.5C 185.922,923.644 181.922,908.644 185.5,891.5C 186.552,891.351 187.552,891.517 188.5,892C 192.552,899.052 198.219,904.386 205.5,908C 219.129,909.703 225.796,903.703 225.5,890C 224.49,881.648 223.49,873.315 222.5,865C 222.983,849.696 227.983,836.03 237.5,824C 238.448,823.517 239.448,823.351 240.5,823.5C 239.557,830.144 239.391,836.811 240,843.5C 241.292,848.124 243.459,852.291 246.5,856C 255.735,861.793 263.568,860.293 270,851.5C 271.653,851.82 272.653,852.82 273,854.5C 273.667,857.833 273.667,861.167 273,864.5C 270.722,870.667 268.055,876.667 265,882.5C 262.263,896.859 267.429,907.359 280.5,914C 302.078,916.859 313.745,907.359 315.5,885.5C 316.978,885.238 318.311,885.571 319.5,886.5C 321.833,889.833 324.167,893.167 326.5,896.5C 327.386,895.675 327.719,894.675 327.5,893.5C 328.552,893.351 329.552,893.517 330.5,894C 339.115,907.646 350.782,910.98 365.5,904C 376.673,892.474 380.007,878.974 375.5,863.5C 378.425,863.46 381.091,864.293 383.5,866C 387.623,868.746 390.957,872.246 393.5,876.5C 398.028,878.617 400.862,877.283 402,872.5C 399.265,848.694 406.765,828.86 424.5,813C 426.441,811.097 428.774,810.264 431.5,810.5C 430.633,813.908 429.467,817.242 428,820.5C 427.333,825.167 427.333,829.833 428,834.5C 434.293,858.709 449.459,868.209 473.5,863C 477.106,861.726 479.773,859.393 481.5,856C 482.5,855.333 483.5,855.333 484.5,856C 485.626,859.744 485.793,863.577 485,867.5C 482.354,873.438 480.52,879.604 479.5,886C 479.975,895.154 484.642,899.154 493.5,898C 500.896,893.681 504.229,887.181 503.5,878.5C 504.552,878.351 505.552,878.517 506.5,879C 513.53,886.365 520.864,893.365 528.5,900C 531.382,901.608 534.382,902.941 537.5,904C 548.049,905.614 555.383,901.614 559.5,892C 562.715,893.88 566.381,894.713 570.5,894.5C 577.771,894.725 583.271,891.725 587,885.5C 590.473,877.416 594.14,869.416 598,861.5C 599.33,857.993 601.83,856.327 605.5,856.5C 606.474,872.157 614.474,877.657 629.5,873C 641.958,863.229 649.292,850.562 651.5,835C 649.731,824.894 648.898,814.727 649,804.5C 649.257,800.623 650.257,796.957 652,793.5C 653.444,791.845 655.278,791.178 657.5,791.5C 657.838,793.854 658.338,796.187 659,798.5C 665.205,808.038 670.539,818.038 675,828.5C 676.2,840.375 674.367,851.708 669.5,862.5C 669.833,863.167 670.167,863.833 670.5,864.5C 674.898,858.241 679.898,852.408 685.5,847C 686.448,846.517 687.448,846.351 688.5,846.5C 688.244,856.541 688.744,866.541 690,876.5C 690.727,883.698 693.893,889.531 699.5,894C 712.316,895.759 721.65,890.926 727.5,879.5C 730.951,884.785 735.284,889.285 740.5,893C 742.087,893.862 743.754,894.529 745.5,895C 762.503,896.16 772.17,888.326 774.5,871.5C 775.873,871.343 777.207,871.51 778.5,872C 780.833,875.667 783.833,878.667 787.5,881C 792.041,882.114 796.041,881.114 799.5,878C 807.541,864.749 815.708,851.583 824,838.5C 826.934,834.377 830.768,831.71 835.5,830.5C 835.634,832.292 835.301,833.958 834.5,835.5 Z"/></g>
<g><path style="opacity:1" fill="#f26e3c" d="M 385.5,791.5 C 386.873,791.343 388.207,791.51 389.5,792C 388,793.5 386.5,795 385,796.5C 383.977,801.905 381.977,806.905 379,811.5C 377.89,813.037 376.39,813.703 374.5,813.5C 372.386,803.059 376.053,795.726 385.5,791.5 Z"/></g>
<g><path style="opacity:1" fill="#f56d3d" d="M 805.5,791.5 C 809.143,804.882 805.143,815.882 793.5,824.5C 788.962,818.519 788.462,812.186 792,805.5C 796.634,801.868 800.967,797.868 805,793.5C 805.464,792.906 805.631,792.239 805.5,791.5 Z"/></g>
<g><path style="opacity:1" fill="#f36e3c" d="M 200.5,807.5 C 203.236,809.858 204.07,812.858 203,816.5C 199.542,825.417 195.042,833.75 189.5,841.5C 184.076,835.44 183.242,828.773 187,821.5C 192.376,817.625 196.876,812.958 200.5,807.5 Z"/></g>
<g><path style="opacity:0.868" fill="#100502" d="M 854.5,807.5 C 854.5,814.833 854.5,822.167 854.5,829.5C 851.691,825.903 850.357,821.736 850.5,817C 849.815,812.881 851.148,809.714 854.5,807.5 Z"/></g>
<g><path style="opacity:1" fill="#997824" d="M 266.5,835.5 C 266.5,836.167 266.833,836.5 267.5,836.5C 267.217,837.289 266.717,837.956 266,838.5C 265.26,837.251 265.427,836.251 266.5,835.5 Z"/></g>
<g><path style="opacity:1" fill="#6d7f19" d="M 388.5,850.5 C 389.905,852.225 390.405,854.225 390,856.5C 388.955,855.627 388.122,854.627 387.5,853.5C 388.404,852.791 388.737,851.791 388.5,850.5 Z"/></g>
<g><path style="opacity:1" fill="#ff8940" d="M 834.5,835.5 C 832.97,846.772 832.303,858.105 832.5,869.5C 830.869,858.048 831.536,846.715 834.5,835.5 Z"/></g>
<g><path style="opacity:1" fill="#bb762d" d="M 769.5,852.5 C 769.664,855.187 769.497,857.854 769,860.5C 768.722,861.416 768.222,862.082 767.5,862.5C 767.753,858.96 768.419,855.627 769.5,852.5 Z"/></g>
<g><path style="opacity:1" fill="#b0772a" d="M 722.5,866.5 C 722.389,867.117 722.056,867.617 721.5,868C 717.642,868.81 713.976,868.643 710.5,867.5C 714.566,867.693 718.566,867.36 722.5,866.5 Z"/></g>
</svg>
