<?xml version="1.0" standalone="no"?>
<!DOCTYPE svg PUBLIC "-//W3C//DTD SVG 20010904//EN"
 "http://www.w3.org/TR/2001/REC-SVG-20010904/DTD/svg10.dtd">
<svg version="1.0" xmlns="http://www.w3.org/2000/svg"
 width="512.000000pt" height="512.000000pt" viewBox="0 0 512.000000 512.000000"
 preserveAspectRatio="xMidYMid meet">

<g transform="translate(0.000000,512.000000) scale(0.100000,-0.100000)"
fill="#000000" stroke="none">
<path d="M1145 5108 c-54 -31 -60 -86 -15 -144 102 -132 141 -215 143 -302 2
-84 -11 -117 -79 -203 -36 -46 -74 -99 -84 -118 -55 -109 -68 -272 -30 -392
22 -74 84 -174 131 -214 49 -41 109 -31 137 22 20 37 13 69 -25 115 -62 74
-87 141 -87 233 0 97 26 161 99 245 139 160 153 359 39 568 -23 42 -61 100
-85 128 -60 71 -99 88 -144 62z"/>
<path d="M3027 5010 c-51 -40 -45 -84 22 -165 69 -83 113 -183 118 -267 6 -88
-7 -122 -75 -204 -63 -77 -88 -119 -113 -190 -60 -175 -16 -385 109 -514 52
-54 74 -60 122 -35 52 27 56 88 9 148 -58 73 -82 132 -87 215 -5 100 19 168
95 260 111 134 144 256 108 403 -42 173 -177 369 -254 369 -16 0 -40 -9 -54
-20z"/>
<path d="M4810 4933 c-46 -18 -217 -108 -277 -146 -168 -108 -356 -283 -464
-432 -75 -103 -166 -314 -213 -496 -46 -180 -104 -563 -126 -834 -14 -182 -29
-508 -23 -518 2 -4 19 -5 36 -3 18 3 76 8 130 12 l97 6 0 106 c0 242 34 741
66 982 33 252 88 479 142 585 48 96 125 198 221 293 111 111 211 187 377 288
65 39 121 80 125 91 12 32 -12 68 -46 70 -17 1 -37 -1 -45 -4z"/>
<path d="M2057 4570 c-47 -37 -42 -109 9 -151 33 -27 94 -133 114 -197 38
-122 24 -187 -61 -292 -174 -213 -186 -464 -31 -670 65 -84 120 -103 167 -55
38 37 34 87 -12 143 -54 65 -82 144 -83 224 0 91 28 162 97 246 109 131 141
249 109 394 -21 93 -68 193 -130 275 -79 105 -124 126 -179 83z"/>
<path d="M1710 2809 c-615 -24 -1207 -85 -1420 -146 l-55 -16 50 -13 c229 -61
736 -114 1395 -145 281 -14 1399 -15 1675 -2 l170 8 6 150 c4 83 5 152 3 154
-16 19 -1400 26 -1824 10z"/>
<path d="M4150 2651 l0 -111 43 0 c149 0 704 95 657 113 -84 31 -420 86 -617
102 l-83 7 0 -111z"/>
<path d="M195 2429 c11 -92 56 -280 91 -389 62 -189 203 -459 328 -625 394
-527 975 -864 1646 -956 119 -17 482 -17 610 0 747 95 1383 479 1745 1056 126
202 232 469 279 705 26 130 42 260 33 260 -3 0 -52 -11 -109 -24 -255 -60
-469 -88 -898 -116 -534 -34 -892 -43 -1584 -37 -657 5 -862 14 -1381 57 -338
28 -590 67 -749 116 -17 6 -18 2 -11 -47z m401 -251 c27 -25 94 -196 94 -241
0 -64 -76 -101 -133 -64 -24 15 -77 128 -99 211 -15 57 -1 91 45 111 37 16 63
11 93 -17z m248 -509 c14 -7 54 -48 89 -93 225 -284 538 -512 884 -645 44 -17
89 -41 99 -52 44 -49 4 -139 -62 -139 -73 0 -344 124 -524 241 -184 119 -398
312 -531 479 -73 92 -85 121 -69 160 12 29 50 59 77 60 7 0 23 -5 37 -11z"/>
<path d="M1052 529 l3 -201 42 -38 c135 -119 528 -227 998 -272 172 -16 752
-16 920 0 569 56 1016 200 1040 335 3 18 5 103 3 189 l-3 158 -85 -51 c-265
-159 -565 -274 -877 -334 -235 -46 -614 -59 -843 -30 -392 49 -765 181 -1081
381 -56 35 -105 64 -110 64 -7 0 -9 -76 -7 -201z"/>
</g>
</svg>
